<svg xmlns="http://www.w3.org/2000/svg" viewBox="0 0 128 128">
  <rect width="128" height="128" rx="24" fill="#1c1c1c"/>
  <path d="M92 68c0-18-12-32-30-32-12 0-20 6-24 14v-4h-8v40h8v-22c0-8 4-14 12-14 7 0 10 5 10 12v24h8V68z" fill="#d4d4d0" display="none"/>
  <path d="M38 50 C 38 40, 50 30, 70 30 C 90 30, 100 45, 100 60 C 100 75, 90 85, 85 85 L 85 95 L 45 95 L 45 80 C 35 80, 30 70, 30 60 L 38 50 Z" fill="#333" display="none"/>
  <!-- Stylized Abstract Rhino Head -->
  <path d="M40 56 L 50 42 C 55 38, 75 38, 84 44 C 92 50, 96 65, 96 65 C 96 65, 92 88, 64 88 L 48 88 L 48 72 Z" fill="#d4d4d0"/>
  <path d="M88 40 L 94 30" stroke="#d4d4d0" stroke-width="6" stroke-linecap="round"/>
  <circle cx="58" cy="60" r="3" fill="#1c1c1c"/>
</svg>